<svg width="24" height="23" viewBox="0 0 24 23" fill="none" xmlns="http://www.w3.org/2000/svg">
    <path d="M4.42459 0.0701504C3.97412 0.230316 3.64878 0.535633 3.43857 1.00112C3.32345 1.24136 3.30843 1.36149 3.28841 1.96211L3.26338 2.65283H2.75786C2.43252 2.65283 2.14723 2.68286 1.97204 2.73291C1.09113 2.99818 0.450467 3.59881 0.130135 4.47472L0 4.83008V12.3879C0 19.5804 0.00500519 19.9608 0.0900934 20.2461C0.240249 20.7166 0.400415 20.9968 0.755784 21.3722C1.00104 21.6275 1.18623 21.7727 1.4465 21.8978C2.14723 22.2431 1.49155 22.2281 12.1776 22.2131L21.8226 22.1981L22.153 22.088C23.0239 21.7877 23.6946 21.0719 23.9248 20.186C23.9899 19.9408 23.9999 18.8797 23.9999 12.4129C23.9999 4.18942 24.0149 4.6549 23.6996 4.05928C23.4894 3.66888 23.1991 3.34354 22.8487 3.1083C22.3482 2.77796 22.0579 2.68786 21.3471 2.65783L20.7215 2.6278L20.6965 1.90205C20.6714 1.26138 20.6564 1.14627 20.5463 0.926037C20.3711 0.560658 20.0208 0.235321 19.6704 0.105186C19.3901 7.62939e-05 19.31 -0.00492859 18.2189 0.010088L17.0677 0.0251026L16.8024 0.170254C16.4671 0.355446 16.2168 0.630732 16.0516 0.996109C15.9365 1.24136 15.9215 1.35648 15.9015 1.96712L15.8765 2.65283L11.9924 2.64282L8.10841 2.6278L8.08338 1.90205C8.05335 1.05617 7.97827 0.835943 7.57285 0.440535C7.16743 0.0451241 6.97223 7.62939e-05 5.6909 7.62939e-05C4.93512 0.00508308 4.54972 0.0251026 4.42459 0.0701504ZM6.75701 1.32645L6.88214 1.44658V3.35355V5.25553H5.68089H4.47464L4.48966 3.35856L4.50467 1.46159L4.6248 1.33146L4.74492 1.20132H5.6909C6.62687 1.20132 6.63688 1.20132 6.75701 1.32645ZM19.3701 1.32645L19.4952 1.44658V3.35355V5.25553H18.294H17.0877L17.1027 3.35856L17.1178 1.46159L17.2379 1.33146L17.358 1.20132H18.304C19.24 1.20132 19.25 1.20132 19.3701 1.32645ZM3.2784 4.88014C3.2784 6.0013 3.30843 6.15145 3.55368 6.34666C3.68883 6.45677 3.71385 6.45677 5.71593 6.45677H7.74303L7.91321 6.28659L8.08338 6.11642V4.98524V3.85407H11.9874H15.8915V4.88014C15.8915 6.0013 15.9215 6.15145 16.1668 6.34666C16.3019 6.45677 16.3269 6.45677 18.329 6.45677H20.3561L20.5263 6.28659L20.6965 6.11642V4.98024V3.84406L21.232 3.86408C21.6875 3.87409 21.8126 3.89912 22.0128 4.00423C22.3081 4.14938 22.5184 4.38462 22.6785 4.72498C22.7936 4.97523 22.7986 5.01027 22.7986 6.44176V7.90828H11.9874H1.17622V6.5819C1.17622 5.11538 1.20625 4.86512 1.44149 4.51976C1.78185 4.02425 2.1172 3.85908 2.81792 3.85407H3.2784V4.88014ZM22.7986 14.4551C22.7986 20.4613 22.8237 20.0659 22.4182 20.5163C22.2881 20.6615 22.0929 20.8066 21.9377 20.8767L21.6725 20.9968H11.9874H2.30239L2.06714 20.8817C1.74681 20.7216 1.48654 20.4563 1.33138 20.1259L1.20125 19.8457L1.18623 14.4751L1.17622 9.10952H11.9874H22.7986V14.4551Z" fill="black"/>
</svg>
