<svg width="24" height="24" viewBox="0 0 24 24" fill="none" xmlns="http://www.w3.org/2000/svg">
    <g clip-path="url(#clip0_103_1198)">
        <path d="M14.8359 0.0702949C14.175 0.215607 13.6312 0.520295 13.1203 1.03592C12.7922 1.36404 12.675 1.52342 12.4969 1.87498C12.375 2.11404 12.2578 2.40467 12.2297 2.51248L12.1781 2.71873H6.40311H0.62811L0.42186 2.82186C0.135923 2.96717 -0.00938991 3.22498 0.0140476 3.52967C0.0374851 3.78279 0.14061 3.95623 0.374985 4.11092L0.529673 4.21873H6.34686H12.164L12.2672 4.56092C12.5625 5.52654 13.3969 6.38904 14.3812 6.74998C15.3328 7.09686 16.2984 7.03123 17.2172 6.55311C18.0234 6.13123 18.7453 5.22186 18.9609 4.34529L18.9937 4.21873H21.2344H23.4703L23.625 4.11092C23.8594 3.95623 23.9625 3.78279 23.9859 3.52967C24.0094 3.22498 23.864 2.96717 23.5781 2.82186C23.3719 2.71873 23.3578 2.71873 21.1781 2.71873H18.989L18.9375 2.51717C18.8437 2.16561 18.5297 1.57967 18.2578 1.25154C17.5969 0.454669 16.5844 -0.00939274 15.5297 0.00466967C15.3047 0.00935698 14.9906 0.0374823 14.8359 0.0702949ZM16.1765 1.58904C16.8984 1.81404 17.4094 2.40936 17.5406 3.18279C17.7609 4.46248 16.5937 5.64842 15.314 5.44686C14.1328 5.26404 13.3594 4.10154 13.664 2.97654C13.7625 2.61561 14.025 2.18904 14.2781 1.97811C14.4844 1.80467 14.8828 1.59842 15.1078 1.54686C15.3937 1.47654 15.8765 1.49998 16.1765 1.58904Z"
              fill="black"/>
        <path d="M7.57031 8.62501C6.37031 8.93907 5.45156 9.80626 5.08125 10.9781L5.00156 11.2453L2.7375 11.2594C0.534375 11.2734 0.473438 11.2781 0.346875 11.3719C0.0984375 11.5547 0.0234375 11.7047 0.0234375 12C0.0234375 12.2953 0.0984375 12.4453 0.346875 12.6281C0.473438 12.7219 0.534375 12.7266 2.74219 12.7406L5.01094 12.7547L5.08594 13.0172C5.31094 13.7859 5.92031 14.5641 6.62813 14.9953C6.77344 15.0797 7.07344 15.2156 7.29844 15.2953C7.65 15.4172 7.8 15.4406 8.2875 15.4594C9 15.4875 9.35625 15.4125 9.98438 15.1031C10.7719 14.7188 11.4703 13.9125 11.7281 13.0922L11.8359 12.75L17.6813 12.7406C23.4984 12.7266 23.5266 12.7266 23.6531 12.6281C23.9016 12.4453 23.9766 12.2953 23.9766 12C23.9766 11.7047 23.9016 11.5547 23.6531 11.3719C23.5266 11.2734 23.4984 11.2734 17.6813 11.2594L11.8359 11.25L11.7281 10.9031C11.4703 10.0828 10.7625 9.2672 9.96563 8.88282C9.73125 8.77032 9.40313 8.64376 9.23438 8.60626C8.80781 8.50314 7.9875 8.51251 7.57031 8.62501ZM9.06094 10.1203C10.2141 10.5188 10.7344 11.8359 10.1766 12.9281C9.96094 13.3547 9.55781 13.6922 9.06094 13.875C8.81719 13.9641 8.7 13.9781 8.33438 13.9594C7.96875 13.9453 7.84688 13.9172 7.57969 13.7953C6.58125 13.3266 6.15 12.1172 6.62813 11.1328C6.85781 10.6734 7.2 10.3594 7.72031 10.1438C8.07656 9.99845 8.67188 9.98907 9.06094 10.1203Z"
              fill="black"/>
        <path d="M14.9765 17.0812C13.7015 17.3297 12.6281 18.2625 12.2672 19.439L12.164 19.7812H6.34686H0.529673L0.374985 19.8843C0.14061 20.0437 0.0374851 20.2172 0.0140476 20.4703C-0.00938991 20.775 0.135923 21.0328 0.42186 21.1781L0.62811 21.2812H6.40311H12.1781L12.2297 21.4875C12.2578 21.5953 12.3797 21.8859 12.5015 22.1297C12.8625 22.8562 13.5234 23.4468 14.339 23.7797C15.6422 24.3093 17.3344 23.8687 18.2531 22.7531C18.5531 22.3922 18.8015 21.9328 18.914 21.5531L18.989 21.2812H21.1828C23.3578 21.2812 23.3719 21.2812 23.5781 21.1781C23.864 21.0328 24.0094 20.775 23.9859 20.4703C23.9625 20.2172 23.8594 20.0437 23.625 19.889L23.4703 19.7812H21.2344H19.0031L18.9187 19.5093C18.7453 18.9515 18.4734 18.5203 18.0234 18.0703C17.55 17.5922 17.1047 17.325 16.5 17.1609C16.0453 17.0343 15.3984 17.0015 14.9765 17.0812ZM16.0312 18.5906C17.0297 18.8156 17.7094 19.8234 17.5406 20.8172C17.4422 21.389 17.1422 21.8625 16.6828 22.1672C15.7687 22.7765 14.5125 22.5187 13.9219 21.6C13.2844 20.6156 13.65 19.2609 14.6906 18.75C15.164 18.5156 15.5203 18.4734 16.0312 18.5906Z"
              fill="black"/>
    </g>
    <defs>
        <clipPath id="clip0_103_1198">
            <rect width="24" height="24" fill="white"/>
        </clipPath>
    </defs>
</svg>
