<svg width="344" height="159" viewBox="0 0 344 159" fill="none" xmlns="http://www.w3.org/2000/svg">
    <g clip-path="url(#clip0_189_438)">
        <g filter="url(#filter0_di_189_438)">
            <path d="M0 0H343.5L274.5 134L167.5 148.5L68 134L0 0Z" fill="white"/>
        </g>
        <g clip-path="url(#clip1_189_438)">
            <path d="M121.523 77.8548L121.3 77.8348C120.04 77.7017 118.854 77.6118 118.854 76.6454C118.854 75.456 120.559 75.233 121.523 75.233C122.644 75.2412 123.753 75.4711 124.786 75.9095L124.934 75.9838L125.601 74.4227L125.453 74.3692C124.21 73.8392 122.874 73.5613 121.523 73.5515C118.854 73.5515 117.074 74.8152 117.074 76.5993C117.074 78.9037 119.373 79.2011 121.226 79.3497H121.375C123.006 79.4984 124.118 79.7147 124.118 80.7621C124.118 81.5798 123.006 82.1002 121.3 82.1002C120.043 82.1121 118.799 81.8323 117.667 81.2825L117.519 81.22L116.777 82.7811L116.926 82.8554C118.281 83.5459 119.78 83.9027 121.3 83.8962C123.97 83.8962 125.898 82.6324 125.898 80.774C125.898 78.1723 123.08 77.8749 121.449 77.7262M138.355 77.2557C138.355 77.7289 138.167 78.1826 137.834 78.5172C137.5 78.8518 137.047 79.0398 136.575 79.0398H133.832V75.4761H136.575C137.054 75.4953 137.507 75.6995 137.838 76.046C138.17 76.3925 138.355 76.8542 138.355 77.3345M136.575 73.7663H133.09C132.854 73.7663 132.628 73.8603 132.461 74.0276C132.294 74.1949 132.2 74.4218 132.2 74.6584V83.8017H133.906V80.9026H136.649C137.113 80.9125 137.574 80.8295 138.006 80.6583C138.437 80.4872 138.83 80.2314 139.162 79.906C139.493 79.5806 139.757 79.192 139.936 78.7632C140.116 78.3344 140.209 77.874 140.209 77.4088C140.209 76.4625 139.834 75.5549 139.166 74.8858C138.499 74.2166 137.593 73.8407 136.649 73.8407M145.547 74.6584V82.9097C145.547 83.1463 145.641 83.3732 145.808 83.5405C145.975 83.7078 146.201 83.8017 146.437 83.8017H153.259V82.092H147.253V79.6389H152.888V77.9292H147.253V75.4761H153.259V73.7663H146.437C146.201 73.7663 145.975 73.8603 145.808 74.0276C145.641 74.1949 145.547 74.4218 145.547 74.6584ZM166.309 80.8283C166.004 81.2723 165.593 81.6336 165.115 81.88C164.636 82.1264 164.104 82.2503 163.566 82.2407C162.654 82.2212 161.787 81.8446 161.149 81.1915C160.512 80.5383 160.155 79.6608 160.155 78.7469C160.155 77.84 160.514 76.9702 161.154 76.3289C161.794 75.6877 162.661 75.3274 163.566 75.3274C164.065 75.3299 164.558 75.4448 165.007 75.6635C165.456 75.8822 165.85 76.1992 166.161 76.5911L166.235 76.6655L167.496 75.5504L167.422 75.4478C166.738 74.6625 165.833 74.1045 164.825 73.8479C163.818 73.5913 162.757 73.6485 161.782 74.0117C160.808 74.3749 159.967 75.027 159.372 75.8811C158.777 76.7353 158.455 77.751 158.449 78.793C158.449 80.1602 158.986 81.4726 159.943 82.4464C160.901 83.4201 162.202 83.977 163.566 83.9965C164.375 84.0148 165.176 83.8347 165.899 83.472C166.623 83.1092 167.247 82.5748 167.718 81.9151L167.792 81.808L166.458 80.7673L166.309 80.8283ZM172.315 75.4761H175.726V83.8017H177.432V75.4761H180.843V73.7663H172.315V75.4761ZM192.781 77.1858C192.781 77.3972 192.738 77.6065 192.656 77.8009C192.573 77.9953 192.451 78.1708 192.299 78.3168C192.146 78.4628 191.966 78.5762 191.768 78.6501C191.571 78.724 191.36 78.7569 191.149 78.7469H187.961V75.4761H191.149C191.37 75.4758 191.588 75.5205 191.791 75.6073C191.994 75.6941 192.177 75.8212 192.33 75.9811C192.482 76.1409 192.601 76.33 192.679 76.5371C192.756 76.7442 192.791 76.9649 192.781 77.1858ZM194.486 77.1858C194.496 76.7403 194.417 76.2973 194.254 75.8828C194.091 75.4684 193.846 75.0908 193.535 74.7722C193.225 74.4537 192.853 74.2006 192.444 74.0279C192.034 73.8552 191.594 73.7662 191.149 73.7663H187.22C186.984 73.7663 186.757 73.8603 186.59 74.0276C186.423 74.1949 186.33 74.4218 186.33 74.6584V83.8017H188.035V80.3823H190.334L192.707 83.8017H194.709L192.188 80.2336C192.847 80.0415 193.427 79.6411 193.841 79.0919C194.255 78.5428 194.482 77.8742 194.486 77.1858ZM207.611 79.4902C207.611 80.2 207.329 80.8807 206.829 81.3825C206.328 81.8844 205.649 82.1663 204.941 82.1663C204.233 82.1663 203.554 81.8844 203.054 81.3825C202.553 80.8807 202.272 80.2 202.272 79.4902V73.7663H200.566V79.4902C200.566 80.6534 201.027 81.769 201.848 82.5915C202.668 83.414 203.781 83.8761 204.941 83.8761C206.102 83.8761 207.214 83.414 208.035 82.5915C208.855 81.769 209.316 80.6534 209.316 79.4902V73.7663H207.611V79.4902ZM224.443 73.6177C224.307 73.6228 224.174 73.659 224.055 73.7234C223.935 73.7878 223.832 73.8788 223.753 73.9894L220.416 78.7469L217.08 73.9894C216.994 73.8934 216.889 73.8171 216.771 73.7658C216.653 73.7145 216.526 73.6893 216.397 73.692C216.161 73.692 215.935 73.786 215.768 73.9533C215.601 74.1206 215.508 74.3475 215.508 74.584V83.8017H217.213V76.8885L220.401 81.4973L223.59 76.8885V83.7274H225.295V74.5097C225.295 74.2731 225.202 74.0462 225.035 73.8789C224.868 73.7117 224.642 73.6177 224.406 73.6177M143.175 92.4248H145.473V97.777H146.66V92.4248H148.958V91.3097H143.175V92.4248ZM156.744 94.5062C156.744 95.1173 156.502 95.7035 156.071 96.1356C155.64 96.5678 155.055 96.8106 154.445 96.8106C153.836 96.8106 153.251 96.5678 152.82 96.1356C152.389 95.7035 152.147 95.1173 152.147 94.5062C152.137 94.2195 152.185 93.9337 152.286 93.6657C152.388 93.3976 152.542 93.1527 152.74 92.9451C153.184 92.5048 153.784 92.2578 154.408 92.2578C155.033 92.2578 155.632 92.5048 156.077 92.9451C156.279 93.1502 156.439 93.3941 156.546 93.6623C156.653 93.9304 156.705 94.2174 156.7 94.5062H156.744ZM154.445 91.161C153.995 91.1409 153.545 91.2126 153.123 91.3717C152.701 91.5308 152.315 91.774 151.989 92.0866C151.664 92.3993 151.405 92.7749 151.228 93.1907C151.051 93.6066 150.96 94.0541 150.96 94.5062C150.931 95.2027 151.11 95.8923 151.474 96.486C151.839 97.0798 152.372 97.5507 153.006 97.838C153.639 98.1254 154.344 98.2162 155.03 98.0986C155.715 97.9811 156.35 97.6606 156.852 97.1784C157.355 96.6963 157.702 96.0745 157.849 95.393C157.996 94.7115 157.936 94.0016 157.677 93.3544C157.418 92.7073 156.972 92.1527 156.396 91.7618C155.82 91.3709 155.141 91.1617 154.445 91.161ZM163.862 96.6619H161.49V95.1009H163.862C164.066 95.1 164.263 95.1759 164.414 95.3135C164.565 95.4511 164.659 95.6405 164.678 95.8442C164.678 96.0611 164.592 96.2691 164.439 96.4224C164.286 96.5758 164.079 96.6619 163.862 96.6619ZM161.49 92.4248H163.64C163.762 92.3865 163.891 92.3776 164.018 92.3988C164.144 92.4199 164.263 92.4705 164.366 92.5465C164.469 92.6225 164.553 92.7217 164.611 92.8362C164.669 92.9506 164.699 93.077 164.699 93.2053C164.699 93.3335 164.669 93.46 164.611 93.5744C164.553 93.6889 164.469 93.7881 164.366 93.864C164.263 93.94 164.144 93.9906 164.018 94.0118C163.891 94.0329 163.762 94.024 163.64 93.9858H161.49V92.4248ZM165.049 94.4318C165.236 94.2805 165.387 94.0877 165.487 93.8684C165.588 93.6491 165.637 93.4094 165.629 93.1681C165.61 92.6577 165.39 92.1756 165.017 91.8274C164.644 91.4792 164.149 91.293 163.64 91.3097H160.971C160.891 91.3068 160.811 91.3201 160.737 91.3486C160.662 91.3772 160.594 91.4206 160.537 91.4761C160.48 91.5316 160.434 91.5981 160.403 91.6717C160.372 91.7453 160.356 91.8245 160.356 91.9044V97.1823C160.356 97.2622 160.372 97.3414 160.403 97.4149C160.434 97.4885 160.48 97.5551 160.537 97.6106C160.594 97.6661 160.662 97.7095 160.737 97.738C160.811 97.7666 160.891 97.7799 160.971 97.777H163.862C164.122 97.787 164.38 97.7444 164.623 97.6517C164.865 97.5591 165.087 97.4183 165.274 97.2378C165.461 97.0574 165.609 96.8409 165.711 96.6014C165.812 96.362 165.865 96.1044 165.864 95.8442C165.872 95.5563 165.799 95.2719 165.655 95.0227C165.511 94.7734 165.301 94.5689 165.049 94.4318ZM170.388 95.1752L171.277 93.2425L172.093 95.1752H170.388ZM171.277 91.2354C171.164 91.2413 171.056 91.2795 170.964 91.3453C170.872 91.4112 170.801 91.502 170.758 91.6071L168.015 97.8513H169.275L169.943 96.2902H172.538L173.205 97.777V97.8513H174.466L171.722 91.6071C171.68 91.502 171.609 91.4112 171.517 91.3453C171.425 91.2795 171.316 91.2413 171.203 91.2354M181.584 95.8442C181.279 96.1954 180.879 96.4492 180.431 96.5742C179.984 96.6992 179.51 96.6899 179.068 96.5475C178.626 96.405 178.235 96.1357 177.944 95.7729C177.654 95.41 177.475 94.9696 177.432 94.5062C177.432 94.2069 177.492 93.9108 177.608 93.6352C177.724 93.3597 177.895 93.1105 178.109 92.9024C178.324 92.6943 178.578 92.5316 178.856 92.424C179.135 92.3164 179.432 92.2661 179.73 92.2761C180.069 92.2727 180.404 92.3442 180.711 92.4855C181.019 92.6269 181.292 92.8346 181.51 93.0938L181.584 93.1681L182.474 92.4248L182.4 92.3504C182.075 91.9798 181.676 91.6822 181.229 91.4772C180.782 91.2722 180.296 91.1645 179.805 91.161C179.354 91.1409 178.904 91.2126 178.482 91.3717C178.06 91.5308 177.674 91.774 177.349 92.0866C177.023 92.3993 176.764 92.7749 176.587 93.1907C176.41 93.6066 176.319 94.0541 176.32 94.5062C176.349 95.2207 176.596 95.9091 177.028 96.4782C177.46 97.0474 178.056 97.4699 178.735 97.6888C179.414 97.9076 180.144 97.9122 180.826 97.702C181.508 97.4918 182.109 97.0769 182.548 96.5132L182.622 96.4389L181.732 95.6956L181.584 95.8442ZM189.592 95.8442C189.288 96.1954 188.887 96.4492 188.439 96.5742C187.992 96.6992 187.518 96.6899 187.076 96.5475C186.634 96.405 186.243 96.1357 185.953 95.7729C185.662 95.41 185.484 94.9696 185.44 94.5062C185.44 94.2069 185.5 93.9108 185.616 93.6352C185.732 93.3597 185.903 93.1105 186.117 92.9024C186.332 92.6943 186.586 92.5316 186.865 92.424C187.143 92.3164 187.44 92.2661 187.739 92.2761C188.077 92.2727 188.412 92.3442 188.72 92.4855C189.027 92.6269 189.3 92.8346 189.518 93.0938L189.592 93.1681L190.482 92.4248L190.408 92.3504C190.084 91.9798 189.685 91.6822 189.237 91.4772C188.79 91.2722 188.305 91.1645 187.813 91.161C187.362 91.1409 186.912 91.2126 186.49 91.3717C186.068 91.5308 185.683 91.774 185.357 92.0866C185.031 92.3993 184.772 92.7749 184.595 93.1907C184.418 93.6066 184.327 94.0541 184.328 94.5062C184.357 95.2207 184.604 95.9091 185.036 96.4782C185.468 97.0474 186.064 97.4699 186.743 97.6888C187.422 97.9076 188.152 97.9122 188.834 97.702C189.516 97.4918 190.117 97.0769 190.556 96.5132L190.63 96.4389L189.666 95.7699L189.592 95.8442ZM197.897 94.5062C197.897 95.1173 197.655 95.7035 197.224 96.1356C196.793 96.5678 196.208 96.8106 195.598 96.8106C194.989 96.8106 194.404 96.5678 193.973 96.1356C193.542 95.7035 193.3 95.1173 193.3 94.5062C193.29 94.2195 193.338 93.9337 193.439 93.6657C193.541 93.3976 193.695 93.1527 193.893 92.9451C194.337 92.5048 194.937 92.2578 195.561 92.2578C196.186 92.2578 196.786 92.5048 197.23 92.9451C197.433 93.1502 197.592 93.3941 197.699 93.6623C197.806 93.9304 197.858 94.2174 197.853 94.5062H197.897ZM195.598 91.161C195.148 91.1409 194.698 91.2126 194.276 91.3717C193.854 91.5308 193.468 91.774 193.143 92.0866C192.817 92.3993 192.558 92.7749 192.381 93.1907C192.204 93.6066 192.113 94.0541 192.113 94.5062C192.084 95.2027 192.263 95.8923 192.627 96.486C192.992 97.0798 193.525 97.5507 194.159 97.838C194.792 98.1254 195.497 98.2162 196.183 98.0986C196.868 97.9811 197.503 97.6606 198.005 97.1784C198.508 96.6963 198.855 96.0745 199.002 95.393C199.149 94.7115 199.089 94.0016 198.83 93.3544C198.571 92.7073 198.125 92.1527 197.549 91.7618C196.973 91.3709 196.294 91.1617 195.598 91.161Z"
                  fill="black"/>
            <path d="M156.448 58.2301L174.466 55.108L183.29 47.0053L168.905 36.4496L162.009 45.8903L156.448 58.2301Z"
                  fill="#0065A7"/>
            <path d="M162.157 45.7416L174.54 54.7363L183.216 46.7823L162.157 45.7416Z" fill="#0678AC"/>
            <path d="M182.771 47.3027L188.332 32.5841L168.534 36.5983L182.771 47.3027Z" fill="#2EB56A"/>
            <path d="M168.534 36.7469L188.332 32.8814L174.318 29.6849L168.534 36.7469Z" fill="#A5CE40"/>
            <path d="M174.318 29.8336L188.406 33.1788L189.593 14L174.318 29.8336Z" fill="#F5E431"/>
            <path d="M153.259 43.4371L156.67 58.7504L162.157 46.3363L153.259 43.4371Z" fill="#9072B3"/>
            <path d="M168.46 37.1185L153.185 43.8831L161.564 46.7079L168.46 37.1185Z" fill="#9360A8"/>
            <path d="M157.782 31.246L153.185 44.0318L169.127 37.1929L157.782 31.246Z" fill="#DF599C"/>
            <path d="M157.634 31.3203L168.979 37.1186L174.837 29.8336L170.165 21.8053L157.634 31.3203Z" fill="#F89A29"/>
            <path d="M169.794 22.1027L174.392 30.0567L189.592 14.6691L169.794 22.1027Z" fill="#FCBC1B"/>
            <path d="M157.041 31.6921L168.386 37.3416L174.244 30.2797L157.041 31.6921Z" fill="#F16165"/>
            <path d="M168.905 36.3009L162.083 46.039L183.142 47.154L168.905 36.3009Z" fill="#1DA6BA"/>
        </g>
    </g>
    <defs>
        <filter id="filter0_di_189_438" x="-10" y="-6" width="363.5" height="168.5" filterUnits="userSpaceOnUse"
                color-interpolation-filters="sRGB">
            <feFlood flood-opacity="0" result="BackgroundImageFix"/>
            <feColorMatrix in="SourceAlpha" type="matrix" values="0 0 0 0 0 0 0 0 0 0 0 0 0 0 0 0 0 0 127 0"
                           result="hardAlpha"/>
            <feOffset dy="4"/>
            <feGaussianBlur stdDeviation="5"/>
            <feComposite in2="hardAlpha" operator="out"/>
            <feColorMatrix type="matrix" values="0 0 0 0 0 0 0 0 0 0 0 0 0 0 0 0 0 0 0.15 0"/>
            <feBlend mode="normal" in2="BackgroundImageFix" result="effect1_dropShadow_189_438"/>
            <feBlend mode="normal" in="SourceGraphic" in2="effect1_dropShadow_189_438" result="shape"/>
            <feColorMatrix in="SourceAlpha" type="matrix" values="0 0 0 0 0 0 0 0 0 0 0 0 0 0 0 0 0 0 127 0"
                           result="hardAlpha"/>
            <feOffset dy="4"/>
            <feGaussianBlur stdDeviation="10"/>
            <feComposite in2="hardAlpha" operator="arithmetic" k2="-1" k3="1"/>
            <feColorMatrix type="matrix" values="0 0 0 0 0 0 0 0 0 0 0 0 0 0 0 0 0 0 0.15 0"/>
            <feBlend mode="normal" in2="shape" result="effect2_innerShadow_189_438"/>
        </filter>
        <clipPath id="clip0_189_438">
            <rect width="344" height="159" fill="white"/>
        </clipPath>
        <clipPath id="clip1_189_438">
            <rect width="109" height="84" fill="white" transform="translate(117 14)"/>
        </clipPath>
    </defs>
</svg>
