<svg width="24" height="24" viewBox="0 0 24 24" fill="none" xmlns="http://www.w3.org/2000/svg">
    <path d="M20.4141 1.35469C20.7422 1.43906 20.9438 1.60312 21.9 2.56875C23.0203 3.69844 23.0625 3.76406 23.0625 4.35469C23.0625 4.9875 23.7 4.30312 14.4 13.6406L5.99064 22.0781L3.63751 22.8516C2.34376 23.2781 1.25157 23.625 1.2047 23.625C1.08282 23.625 0.937511 23.4516 0.937511 23.3109C0.937511 23.2406 1.26564 22.1391 1.66876 20.8594L2.40001 18.5391L3.08439 17.8359C3.46407 17.4516 7.26564 13.6312 11.5313 9.35156C17.7563 3.10312 19.3313 1.54688 19.5141 1.4625C19.7578 1.35 20.1938 1.29375 20.4141 1.35469ZM19.8047 2.05781C19.6875 2.11406 19.2047 2.55937 18.4922 3.27656L17.3672 4.40625L18.6938 5.72812L20.0156 7.05469L21.1453 5.92969C21.7641 5.31094 22.3031 4.74844 22.3406 4.67812C22.4531 4.4625 22.425 4.125 22.2703 3.88594C22.0828 3.59531 20.5875 2.12812 20.3906 2.04375C20.175 1.95 20.0297 1.95469 19.8047 2.05781ZM3.19689 18.6516C3.1922 18.6656 3.78282 19.2703 4.50939 19.9969L5.83595 21.3094L12.6984 14.4234L19.5656 7.54219L18.2344 6.21094L16.9078 4.88437L10.0594 11.7516C6.29064 15.5297 3.20626 18.6328 3.19689 18.6516ZM2.30157 21.0422C2.01564 21.9562 1.78595 22.7156 1.79064 22.7344C1.80001 22.7484 2.57345 22.5094 3.51095 22.2047L5.21251 21.6422L4.05001 20.4797C3.40782 19.8375 2.87345 19.3312 2.8547 19.35C2.83595 19.3687 2.58751 20.1281 2.30157 21.0422Z"
          fill="black"/>
</svg>
