<svg width="15" height="15" viewBox="0 0 15 15" fill="none" xmlns="http://www.w3.org/2000/svg">
    <circle cx="7.5" cy="7.5" r="7.5" fill="#FAB300"/>
    <path d="M5.88137 3.15918C5.85232 3.17627 5.81814 3.20703 5.80959 3.22583C5.78567 3.26855 5.78567 3.38989 5.80788 3.43262C5.81643 3.44971 5.96853 3.57788 6.14285 3.71631L6.46072 3.96753L6.26418 4.02392C5.63357 4.20508 5.07302 4.52978 4.62356 4.97583C4.29714 5.29883 4.08352 5.5979 3.88357 6.00464C3.60159 6.58398 3.48708 7.1206 3.50588 7.78198C3.51614 8.13232 3.54006 8.30664 3.62038 8.61768C3.94338 9.87378 4.90896 10.8906 6.14455 11.2769C6.35989 11.3435 6.42141 11.3435 6.49831 11.2769C6.57009 11.2119 6.5906 11.1299 6.55129 11.0479C6.5137 10.9692 6.47781 10.9487 6.29495 10.894C5.1448 10.5454 4.251 9.57983 3.98953 8.40405C3.92458 8.10669 3.90579 7.88965 3.91604 7.55127C3.93142 7.04199 4.02371 6.66602 4.24416 6.2063C4.50906 5.6543 4.89871 5.20483 5.40456 4.86475C5.67971 4.68017 5.96511 4.54687 6.33425 4.42725C6.39236 4.40674 6.40603 4.42212 6.3616 4.45972C6.34622 4.47168 6.24197 4.58447 6.13088 4.70923C5.94119 4.91943 5.92751 4.94165 5.92751 5.00488C5.92751 5.10058 5.96853 5.17407 6.0386 5.20312C6.10867 5.23218 6.15139 5.23389 6.20779 5.20825C6.2488 5.18945 7.09646 4.26489 7.13577 4.19482C7.16995 4.13672 7.16311 4.04101 7.12039 3.98633C7.0845 3.94189 6.23 3.25146 6.10183 3.16431C6.03005 3.11645 5.95486 3.11475 5.88137 3.15918Z"
          fill="white"/>
    <path d="M7.66405 3.51978C7.64013 3.53857 7.61278 3.56763 7.60424 3.58301C7.5786 3.63086 7.51366 4.1145 7.52563 4.16577C7.53075 4.19312 7.55981 4.23584 7.58715 4.26318C7.62987 4.3042 7.6538 4.31274 7.72216 4.31274C7.79394 4.31274 7.81444 4.3042 7.86059 4.25977C7.91015 4.21021 7.91527 4.1897 7.95458 3.9436C7.9956 3.68384 7.9956 3.64966 7.95629 3.57275C7.91357 3.48389 7.74779 3.45312 7.66405 3.51978Z"
          fill="white"/>
    <path d="M9.08588 3.97969C9.02606 4.02583 8.79535 4.43428 8.78681 4.50947C8.77143 4.63935 8.91156 4.75386 9.03803 4.71626C9.12006 4.69233 9.1474 4.65815 9.28583 4.41548C9.41059 4.19673 9.42768 4.13008 9.37982 4.0395C9.33026 3.94721 9.16962 3.91304 9.08588 3.97969Z"
          fill="white"/>
    <path d="M10.2854 4.89724C10.2718 4.90237 10.1692 4.97927 10.0581 5.06814C9.82229 5.25613 9.7864 5.31082 9.82571 5.42361C9.86672 5.53982 10.0034 5.60134 10.1026 5.54836C10.1641 5.51589 10.4649 5.26809 10.5144 5.20999C10.6426 5.05618 10.4751 4.82717 10.2854 4.89724Z"
          fill="white"/>
    <path d="M7.34766 5.4082C7.31861 5.43213 7.28785 5.47998 7.2776 5.51416C7.25196 5.60815 7.25709 7.48975 7.28272 7.56836C7.29469 7.60254 7.32887 7.64355 7.36134 7.66577L7.42115 7.70508L8.35767 7.70166L9.2942 7.69653L9.34888 7.64014C9.39674 7.59229 9.40528 7.57349 9.40528 7.5C9.40528 7.42651 9.39674 7.40771 9.34888 7.35986L9.2942 7.30347L8.48243 7.29834L7.67066 7.29321V6.38745V5.47998L7.61256 5.42188C7.53565 5.34497 7.42799 5.33984 7.34766 5.4082Z"
          fill="white"/>
    <path d="M10.7983 6.2627C10.53 6.34985 10.4736 6.39258 10.4736 6.5105C10.4736 6.5481 10.4856 6.60107 10.4993 6.62671C10.5215 6.67285 10.6155 6.73096 10.665 6.73096C10.677 6.73096 10.8 6.69507 10.9351 6.65234C11.217 6.56348 11.2734 6.52417 11.2888 6.41138C11.3042 6.29004 11.2085 6.18237 11.0854 6.18579C11.0547 6.1875 10.9248 6.22168 10.7983 6.2627Z"
          fill="white"/>
    <path d="M10.7606 7.4248C10.6239 7.49829 10.6325 7.71533 10.7743 7.78198C10.8529 7.81787 11.3075 7.81787 11.3861 7.78198C11.5297 7.71362 11.5365 7.49487 11.3964 7.4231C11.3263 7.38721 10.829 7.38721 10.7606 7.4248Z"
          fill="white"/>
</svg>
