<svg width="0" height="0" class="hidden">
    <symbol fill="none" xmlns="http://www.w3.org/2000/svg" viewBox="0 0 31 31" id="cart">
        <g clip-path="url(#clip0_189_433)">
            <path d="M0.381445 0.52075C0.19375 0.61157 0 0.914305 0 1.11411C0 1.30786 0.175586 1.62876 0.339062 1.73774C0.49043 1.83462 0.690234 1.85278 2.08887 1.877C3.57227 1.90727 3.6752 1.91333 3.91738 2.04653C4.2625 2.22817 4.57129 2.54907 4.74082 2.89419C4.81953 3.05161 5.90332 6.25454 7.14453 10.0145L9.40898 16.8442L9.3 17.1288C8.85801 18.2791 8.87617 18.2186 8.87012 18.9512C8.87012 19.5204 8.89434 19.7202 9.00937 20.0532C9.38477 21.143 10.2809 21.9604 11.4131 22.251C11.9398 22.3842 26.132 22.3903 26.3924 22.2571C26.8889 21.9967 26.8828 21.2823 26.3803 20.9916C26.2773 20.9372 24.6062 20.9129 18.9209 20.8887L11.5947 20.8584L11.2678 20.6768C10.9348 20.4952 10.6381 20.1743 10.4383 19.7989C10.3596 19.6415 10.3293 19.4477 10.3232 19.042C10.3232 18.5758 10.3475 18.4366 10.4928 18.0975C10.6623 17.704 10.6744 17.6918 10.9166 17.6555C11.0559 17.6374 14.4525 17.2801 18.4668 16.8624C22.4811 16.4446 25.9141 16.0752 26.0957 16.0389C26.8223 15.8997 27.5791 15.5182 28.118 15.0217C28.5115 14.6584 28.9172 14.0106 29.123 13.4112C29.3471 12.7633 31.0121 5.63091 30.9758 5.47954C30.9334 5.30395 30.7275 5.09809 30.5156 5.01333C30.4187 4.977 26.023 4.89223 18.6363 4.7893C12.182 4.69848 6.89629 4.61372 6.87812 4.59555C6.86602 4.58344 6.71465 4.1354 6.53906 3.60258C6.09102 2.25239 5.92754 1.93149 5.41895 1.41684C4.95273 0.944578 4.35938 0.61157 3.76602 0.490477C3.58437 0.454147 2.82148 0.423874 2.01016 0.423874C0.829492 0.423874 0.538867 0.442039 0.381445 0.52075ZM19.7988 6.24243C25.0422 6.31509 29.341 6.38169 29.3531 6.3938C29.3652 6.39985 29.0201 7.87114 28.5842 9.66938C27.7607 13.0479 27.6336 13.4415 27.2461 13.8592C26.9373 14.1862 26.5014 14.4465 26.0896 14.5555C25.7506 14.6403 11.3465 16.1661 10.85 16.1661H10.6623L9.74199 13.3627C9.2334 11.8249 8.48867 9.54829 8.07695 8.30102L7.33223 6.03657L8.79746 6.0729C9.60273 6.09712 14.5555 6.16977 19.7988 6.24243Z" fill="white"></path>
            <path d="M9.20309 24.1946C8.04059 24.4428 7.0234 25.4358 6.75094 26.5862C6.49059 27.7003 6.80543 28.7961 7.61676 29.6075C8.44625 30.437 9.52398 30.7458 10.6502 30.4854C11.2132 30.3522 11.7158 30.0555 12.1759 29.5954C12.8964 28.8749 13.2295 27.9001 13.0902 26.9192C12.9388 25.8596 12.2607 24.9272 11.292 24.461C10.5775 24.1098 9.95387 24.0311 9.20309 24.1946ZM10.6804 25.7567C11.3162 26.0655 11.6492 26.6286 11.6552 27.3672C11.6552 27.7245 11.625 27.8758 11.516 28.0938C11.298 28.5055 10.9166 28.8628 10.5472 29.002C9.07594 29.553 7.68336 28.1604 8.23434 26.6891C8.40992 26.2169 8.88824 25.787 9.44527 25.6053C9.72379 25.5145 10.3353 25.5872 10.6804 25.7567Z" fill="white"></path>
            <path d="M22.8867 24.1945C22.2691 24.3277 21.7666 24.6063 21.2822 25.0906C20.6283 25.7445 20.3438 26.4227 20.3438 27.3369C20.3438 28.2572 20.6404 28.9838 21.2943 29.6316C22.5537 30.891 24.5518 30.891 25.8111 29.6316C26.465 28.9838 26.7617 28.2693 26.7617 27.3732C26.7617 26.4166 26.4893 25.7566 25.8232 25.0906C25.3328 24.6002 24.8363 24.3277 24.1885 24.1885C23.6738 24.0795 23.4014 24.0795 22.8867 24.1945ZM24.2914 25.7143C24.6547 25.8777 24.9877 26.2229 25.1754 26.6285C25.5689 27.4883 25.2057 28.5115 24.358 28.9414C23.9402 29.1594 23.1652 29.1594 22.7475 28.9414C21.7545 28.4389 21.476 27.2219 22.1359 26.2652C22.5779 25.6295 23.5346 25.3813 24.2914 25.7143Z" fill="white"></path>
        </g>
        <defs>
            <clipPath id="clip0_189_433">
                <rect width="31" height="31" fill="white"></rect>
            </clipPath>
        </defs>
    </symbol>
</svg>