<svg width="0" height="0" class="hidden">
    <symbol fill="none" xmlns="http://www.w3.org/2000/svg" viewBox="0 0 24 24" id="distrib">
        <g clip-path="url(#clip0_103_1303)">
            <path d="M8.80313 5.06719C8.60156 5.17031 8.4375 5.44687 8.4375 5.67188C8.4375 5.90625 8.60156 6.17344 8.8125 6.28125C8.99531 6.375 9.075 6.375 16.2188 6.375C23.3625 6.375 23.4422 6.375 23.625 6.28125C23.8359 6.17344 24 5.90625 24 5.67188C24 5.4375 23.8359 5.17031 23.625 5.0625C23.4422 4.96875 23.3672 4.96875 16.2094 4.96875C9.09844 4.97344 8.97188 4.97344 8.80313 5.06719Z" fill="black"></path>
            <path d="M5.99063 8.58279C5.67656 8.74685 5.54063 9.16404 5.7 9.48279C5.74219 9.56717 6.14531 10.0078 6.6 10.4625L7.42969 11.2969H3.99375C0.642188 11.2969 0.553125 11.2969 0.375 11.3906C0.164062 11.4984 0 11.7656 0 12C0 12.2344 0.164062 12.5015 0.375 12.6094C0.553125 12.7031 0.642188 12.7031 3.99375 12.7031H7.42969L6.6 13.5328C6.14531 13.9922 5.74219 14.4328 5.7 14.5172C5.41406 15.089 6.05156 15.7265 6.62344 15.4406C6.82969 15.3375 9.64219 12.5344 9.75469 12.3187C9.80156 12.2203 9.84375 12.0797 9.84375 12C9.84375 11.9203 9.80156 11.7797 9.75469 11.6812C9.64219 11.4656 6.82969 8.66248 6.62344 8.55935C6.42656 8.46092 6.20156 8.4656 5.99063 8.58279Z" fill="black"></path>
            <path d="M11.6156 9.28594C11.4141 9.38906 11.25 9.66562 11.25 9.89062C11.25 10.125 11.4141 10.3922 11.625 10.5C11.8078 10.5938 11.8875 10.5938 17.625 10.5938C23.3625 10.5938 23.4422 10.5938 23.625 10.5C23.8359 10.3922 24 10.125 24 9.89062C24 9.65625 23.8359 9.38906 23.625 9.28125C23.4422 9.1875 23.3625 9.1875 17.6156 9.1875C11.9062 9.19219 11.7844 9.19219 11.6156 9.28594Z" fill="black"></path>
            <path d="M11.6156 13.5047C11.4141 13.6078 11.25 13.8844 11.25 14.1094C11.25 14.3437 11.4141 14.6109 11.625 14.7188C11.8078 14.8125 11.8875 14.8125 17.625 14.8125C23.3625 14.8125 23.4422 14.8125 23.625 14.7188C23.8359 14.6109 24 14.3437 24 14.1094C24 13.875 23.8359 13.6078 23.625 13.5C23.4422 13.4062 23.3625 13.4062 17.6156 13.4062C11.9062 13.4109 11.7844 13.4109 11.6156 13.5047Z" fill="black"></path>
            <path d="M8.80313 17.7234C8.60156 17.8266 8.4375 18.1031 8.4375 18.3281C8.4375 18.5625 8.60156 18.8297 8.8125 18.9375C8.99531 19.0312 9.075 19.0312 16.2188 19.0312C23.3625 19.0312 23.4422 19.0312 23.625 18.9375C23.8359 18.8297 24 18.5625 24 18.3281C24 18.0937 23.8359 17.8266 23.625 17.7188C23.4422 17.625 23.3672 17.625 16.2094 17.625C9.09844 17.6297 8.97188 17.6297 8.80313 17.7234Z" fill="black"></path>
        </g>
        <defs>
            <clipPath id="clip0_103_1303">
                <rect width="24" height="24" fill="white"></rect>
            </clipPath>
        </defs>
    </symbol>
</svg>