<svg width="0" height="0" class="hidden">
    <symbol fill="none" xmlns="http://www.w3.org/2000/svg" viewBox="0 0 31 31" id="profile">
        <path d="M14.3775 0.038312C11.8277 0.362095 9.62871 1.94054 8.50896 4.24749C8.00305 5.28629 7.82767 6.00132 7.78719 7.24248C7.74672 8.38247 7.81418 8.98282 8.08399 9.85298C8.68434 11.7754 10.1346 13.4686 11.9829 14.3859C14.0133 15.4045 16.6642 15.391 18.7149 14.3657C19.4366 14.0015 19.9425 13.6372 20.5969 13.0031C21.7773 11.8699 22.5598 10.3791 22.8094 8.79394C22.9443 7.9575 22.8633 6.36557 22.6475 5.5696C21.892 2.82419 19.6525 0.726351 16.8599 0.139494C16.273 0.0113297 14.9644 -0.042634 14.3775 0.038312ZM16.6035 2.3655C17.1971 2.50716 18.1685 2.99283 18.6609 3.39081C19.9425 4.43636 20.6508 5.91362 20.6508 7.55952C20.6508 9.11773 20.0842 10.4129 18.9442 11.4854C15.9627 14.2713 11.133 12.8075 10.1211 8.81418C9.99971 8.33525 9.97947 8.1059 10.0065 7.3639C10.0334 6.59492 10.0604 6.40604 10.2425 5.89339C10.8969 4.02489 12.4551 2.6623 14.3573 2.29805C14.9779 2.18337 15.9492 2.21036 16.6035 2.3655Z" fill="white"></path>
        <path d="M13.7706 15.8969C12.86 15.9981 11.7942 16.2341 10.8701 16.5444C5.73677 18.2376 2.03351 22.7705 1.3657 28.1669C1.32523 28.4772 1.2915 29.2462 1.2915 29.8668V31H2.36403H3.42982L3.47704 29.9005C3.53775 28.5109 3.66591 27.6138 3.95597 26.6154C4.52933 24.6255 5.50068 22.9999 7.02516 21.4889C9.15673 19.3708 11.8684 18.1836 14.8499 18.0689C16.9747 17.988 18.7623 18.3792 20.651 19.3371C21.845 19.9509 22.6679 20.5378 23.619 21.4889C25.1435 22.9999 26.1149 24.6255 26.6882 26.6154C26.9783 27.6138 27.1064 28.5109 27.1672 29.9005L27.2144 31H28.2802H29.3527V29.8533C29.3527 27.5598 28.9277 25.6913 27.9429 23.6812C26.2902 20.3084 23.3087 17.6979 19.7539 16.531C17.8921 15.9171 15.6729 15.681 13.7706 15.8969Z" fill="white"></path>
    </symbol>
</svg>